# xmcd
#
# Track frame offsets:
#	150
#	15222
#	31185
#	44122
#	55480
#	76022
#	96290
#	111405
#	125675
#	139337
#	152800
#	168665
#
# Disc length: 2553 seconds
#
# Revision: 0
# Processed by: cddbd v1.4PL0 Copyright (c) Steve Scherf et al.
# Submitted via: EasyCDDAExtractor 4.5.2.1
#
DISCID=a109f70c
DTITLE=Various Artist - Best of Country '96
DYEAR=1996
DGENRE=Country
TTITLE0=Check Yes or No
TTITLE1=My Maria
TTITLE2=Blue
TTITLE3=So Much For Pretending
TTITLE4=Lonely Too Long
TTITLE5=You Win My Love
TTITLE6=I Like It, I Love It
TTITLE7=Poor, Poor Pitiful Me
TTITLE8=Daddy's Money
TTITLE9=The Fear Of Being Alone
TTITLE10=Like The Rain
TTITLE11=Go Rest High On That Mountain
EXTD=
EXTT0=
EXTT1=
EXTT2=
EXTT3=
EXTT4=
EXTT5=
EXTT6=
EXTT7=
EXTT8=
EXTT9=
EXTT10=
EXTT11=
PLAYORDER=
